<svg width="100%" height="100%" viewBox="0 0 329 68" fill="none" xmlns="http://www.w3.org/2000/svg">
<g clip-path="url(#clip0_1667_6277)">
<path d="M15.2386 29.7082C15.2386 29.7082 15.2961 29.6161 15.3938 29.6333C15.4686 29.6506 15.4858 29.7484 15.4858 29.7484L17.8199 36.7367C17.8314 36.9037 17.9176 37.0533 18.0556 37.1455C18.1936 37.2376 18.366 37.2606 18.527 37.2088L20.2977 36.6561C22.0454 36.0632 26.5467 35.0214 30.0939 36.1381C30.8239 36.3626 31.8359 36.7943 33.0258 37.3815C36.1533 38.9243 39.7004 39.7013 43.3107 39.6495C44.2651 47.8179 43.65 48.5835 42.3335 50.2298L41.4136 51.2775C41.4079 51.289 41.3963 51.2949 41.3905 51.3063C40.8732 51.9856 40.2867 52.7569 39.7176 53.5743C38.907 54.7428 38.2747 55.8711 37.8493 56.9247C36.8833 59.3078 36.7167 61.6103 36.6246 63.9589C36.6132 64.2122 36.7857 64.4367 37.0329 64.5C37.2801 64.5633 37.5331 64.4367 37.6423 64.2065C38.4989 62.3875 39.5624 60.3438 40.9996 58.9624C42.1493 57.8284 43.6326 56.9879 45.2078 56.0956C45.4724 55.946 45.7425 55.7964 46.0127 55.6409C46.0529 55.6178 46.0874 55.5949 46.1162 55.5602L46.5588 55.1343C46.5645 55.1286 46.5704 55.1228 46.5762 55.1171C49.2263 52.3021 51.0085 49.4757 49.7093 38.6422C49.7093 38.6363 49.7093 38.6306 49.7093 38.6249L48.9503 33.7607C48.9158 33.5247 48.7205 33.3404 48.479 33.3116L46.2254 33.0642C45.5471 32.9836 43.6326 32.713 38.3723 31.8035C33.2961 30.9285 32.9742 30.088 32.3877 28.5741L32.3819 28.5511C32.3072 28.3611 32.2325 28.1653 32.1521 27.9698C29.5074 21.465 30.3238 17.303 31.4966 14.2463L46.0932 15.0292C46.2542 15.0407 46.4094 14.9774 46.5186 14.8623L54.5155 6.30245C56.6769 5.88799 63.3573 5.0015 69.3995 8.42658C75.821 12.0646 79.3508 17.5908 80.9145 20.6475C80.7018 22.8753 78.6149 29.1554 71.2104 34.106C71.0379 33.8643 70.8654 33.6225 70.6986 33.3808C69.6467 31.8035 68.537 29.3281 68.0656 27.492C67.0137 23.4164 66.8814 19.8762 67.6863 17.2627C67.7553 17.0382 67.669 16.7907 67.4736 16.6583C67.278 16.5259 67.0194 16.5374 66.8354 16.6928C63.8748 19.1566 63.984 26.0759 64.1679 27.6473L64.1908 27.8775C64.3978 29.9498 64.714 33.0757 67.4275 37.9399C68.1805 39.2927 69.9743 40.8929 70.049 40.9621C70.2099 41.106 70.4343 41.1347 70.6296 41.0484C72.4751 40.1848 73.5674 39.3847 74.8321 38.4579C74.8321 38.4579 74.8378 38.4579 74.8378 38.4522C75.2116 40.9792 76.1831 43.5697 76.965 45.1354C77.6779 46.5572 78.7069 48.4915 79.5866 49.6139C79.7303 49.7982 79.9775 49.8672 80.1959 49.7865C80.4144 49.7061 80.5524 49.493 80.5409 49.2571C80.5064 48.6066 80.3799 47.3401 80.2304 45.8779C80.0694 44.2835 79.8855 42.4702 79.7993 41.175C79.6211 38.573 79.7417 35.0041 80.6502 33.4959C80.9892 33.0181 86.0369 25.6902 86.5485 18.5636C86.5542 18.4773 86.537 18.391 86.5025 18.3104C86.3357 17.9362 82.3231 9.04253 72.797 3.46453C63.3975 -2.03863 53.3139 0.58631 52.1927 0.908671C52.1066 0.931696 52.0319 0.977748 51.9686 1.03531L43.7649 8.94466L27.2022 8.41507C26.9089 8.41507 26.7652 8.47838 26.5927 8.77772C25.9662 9.86568 23.1204 15.8409 24.5806 24.936L20.2918 29.0807L17.4922 21.1713C17.4519 21.0274 17.245 20.59 17.0265 20.4518C16.9058 20.3769 16.7276 20.2791 16.2907 20.2791C15.917 20.2791 15.4743 20.5267 15.1696 20.7798C14.612 21.2405 8.24214 27.3997 4.64329 37.4735C3.32678 41.1635 3.55099 48.1576 4.02815 51.289C4.0454 51.5194 4.23511 53.9082 4.18338 55.1631C4.16613 56.5159 3.99941 57.8687 3.69472 59.1753C3.07383 61.9557 1.93555 64.667 0.406323 67.0213C0.262599 67.2401 0.302841 67.5336 0.498305 67.7122C0.601787 67.8043 0.728264 67.8504 0.85474 67.8504C0.975468 67.8504 1.0962 67.81 1.19393 67.7294C3.4935 65.8183 7.63275 61.8291 9.48391 56.5791C9.58739 56.2799 9.71386 55.8597 9.84035 55.3761C10.352 53.4247 10.3635 51.2718 10.2485 48.9462C9.97831 43.7654 10.3175 39.8625 10.5762 39.0739C10.5705 39.0682 11.0994 35.6143 15.2386 29.7082Z" fill="#FFF9F5"/>
<path d="M130.806 17.8854C128.115 15.9513 124.183 15.1914 118.733 15.1914H99.7617V17.6091C104.522 18.1618 105.143 18.5762 105.143 24.4478V50.9043C105.143 56.7759 104.522 57.2595 99.3477 57.743V60.0916H120.803V57.743C114.87 57.2595 114.249 56.7759 114.249 50.9043V41.4408L118.94 42.546C119.699 42.546 120.803 42.546 121.838 42.4078C129.081 41.5099 135.911 37.2962 135.911 28.0399C135.911 23.5498 134.048 20.0959 130.806 17.8854ZM117.974 39.3685C116.526 39.3685 115.077 39.0231 114.249 38.6776V20.7176C114.249 19.6814 114.456 18.9907 114.87 18.5762C115.284 18.2308 116.112 17.8854 117.422 17.8854C121.631 17.8854 126.046 20.4413 126.046 28.247C126.046 37.5724 120.527 39.3685 117.974 39.3685Z" fill="#FFF9F5"/>
<path d="M164.536 39.85C164.605 34.1857 159.707 28.7285 153.36 28.7285C149.566 28.7285 145.771 30.5936 142.736 33.633C139.838 36.4651 137.631 40.886 137.631 46.136C137.631 54.0799 142.736 60.9185 151.911 60.9185C154.74 60.9185 160.121 59.5369 164.329 53.2509L163.087 51.5931C160.673 53.6654 158.12 54.5634 155.43 54.5634C150.531 54.5634 146.461 50.8332 146.116 43.442C152.877 43.1656 161.293 42.4748 162.535 42.3368C164.128 42.1294 164.536 41.2315 164.536 39.85ZM154.676 39.9881C151.848 40.0571 149.295 40.1261 146.467 40.1953C146.881 34.6692 149.295 31.4915 151.917 31.4915C154.608 31.4915 156.125 35.0835 156.125 38.6066C156.056 39.7808 155.711 39.919 154.676 39.9881Z" fill="#FFF9F5"/>
<path d="M206.756 55.9452C205.308 55.9452 202.823 55.3235 202.823 49.9355V32.8734H209.171C210.273 32.3207 210.411 30.3174 209.583 29.5577H202.823V19.5415L201.858 19.127L194.062 24.5149V29.5577H191.302H180.54V19.5415L179.574 19.127L171.779 24.5149V29.5577H169.019L167.088 32.0443L167.433 32.8734H171.779V52.215C171.779 58.432 174.883 60.9188 180.195 60.9188C180.679 60.9188 181.782 60.6424 183.024 60.1589L188.612 57.5339L187.922 55.1163C186.75 55.6688 185.645 55.9452 184.472 55.9452C183.024 55.9452 180.54 55.3235 180.54 49.9355V32.8734H189.715H194.062V52.215C194.062 58.432 197.166 60.9188 202.478 60.9188C202.961 60.9188 204.065 60.6424 205.308 60.1589L210.896 57.5339L210.206 55.1163C209.038 55.6688 207.934 55.9452 206.756 55.9452Z" fill="#FFF9F5"/>
<path d="M240.987 55.3231C239.883 55.3231 238.78 54.4253 238.78 51.2476V39.85C238.78 35.9816 238.16 33.0112 235.192 30.7318C233.33 29.3502 231.26 28.7285 228.432 28.7285C224.499 29.4192 219.601 31.837 216.979 33.633C215.394 34.8074 214.566 35.7052 214.566 36.9486C214.566 38.7447 217.049 40.4025 218.842 40.4025C220.291 40.4025 221.257 39.85 221.739 38.0539C222.292 35.9126 222.912 34.2547 223.741 33.2876C224.362 32.4587 225.12 32.0442 226.017 32.0442C228.569 32.0442 230.225 34.4618 230.225 38.8137V40.886C228.639 42.2676 223.327 43.9255 219.256 45.4451C215.669 46.7577 214.014 48.4846 214.014 52.0766C214.014 56.3594 217.464 60.9185 223.327 60.9185C224.637 60.9185 227.879 58.639 230.502 56.9121C230.847 57.741 231.329 58.639 232.295 59.4679C233.192 60.2968 234.64 60.9185 236.503 60.9185L244.023 56.9811L243.333 54.7706C242.575 55.047 241.82 55.3231 240.987 55.3231ZM230.225 54.6324C229.052 55.4613 228.294 55.7377 227.327 55.7377C225.742 55.7377 223.189 54.2871 223.189 50.4187C223.189 48.0701 224.292 46.8267 226.432 45.7215C227.812 44.9616 228.984 44.2017 230.225 43.5802V54.6324Z" fill="#FFF9F5"/>
<path d="M263.74 28.7297C262.362 28.7297 261.257 29.1442 259.325 30.0421L256.773 31.2855V11.5352C252.842 12.6404 247.254 13.6075 243.734 14.0219V16.0943C247.599 16.4396 247.942 16.9923 247.942 20.9988V58.4387C252.702 60.2346 256.222 60.9255 260.085 60.9255C270.158 60.9255 278.021 53.3959 278.021 43.3107C278.021 35.5684 272.088 28.7297 263.74 28.7297ZM261.327 58.1566C259.12 58.0875 257.532 56.0152 257.118 54.9099C256.912 54.3572 256.773 53.5975 256.773 52.6303V33.7033C257.808 33.4269 258.498 33.2197 259.602 33.2197C264.017 33.2197 268.433 36.6736 268.433 45.4464C268.433 54.0811 265.052 58.2256 261.327 58.1566Z" fill="#FFF9F5"/>
<path d="M293.826 52.4923V11.5352C289.961 12.6404 284.856 13.5384 280.925 14.0219V16.0252C284.718 16.5087 285.063 16.7159 285.063 20.8606V52.498C285.063 56.9189 284.65 57.2643 280.58 57.886V60.0965H298.446V57.886C294.233 57.3968 293.826 57.1204 293.826 52.4923Z" fill="#FFF9F5"/>
<path d="M319.212 54.5644C314.315 54.5644 310.244 50.8342 309.899 43.443C316.66 43.1666 325.077 42.4757 326.318 42.3377C327.905 42.1304 328.318 41.2325 328.318 39.8509C328.388 34.1866 323.49 28.7295 317.142 28.7295C313.349 28.7295 309.554 30.5946 306.519 33.6339C303.622 36.4661 301.414 40.887 301.414 46.137C301.414 54.0809 306.519 60.9194 315.695 60.9194C318.522 60.9194 323.903 59.5379 328.113 53.2518L326.87 51.5941C324.455 53.6664 321.903 54.5644 319.212 54.5644ZM315.695 31.4925C318.385 31.4925 319.902 35.0845 319.902 38.6075C319.833 39.7818 319.488 39.9199 318.455 39.9891C315.625 40.0581 313.072 40.1271 310.244 40.1963C310.657 34.6702 313.072 31.4925 315.695 31.4925Z" fill="#FFF9F5"/>
</g>
<defs>
<clipPath id="clip0_1667_6277">
<rect width="328" height="67.8484" fill="white" transform="translate(0.320312 0.00195312)"/>
</clipPath>
</defs>
</svg>
