<svg width="1200" height="680" viewBox="0 0 1200 680" fill="none" xmlns="http://www.w3.org/2000/svg">
  <rect width="1200" height="680" fill="#fff"/>
  <rect x="1" y="1" width="1198" height="678" stroke="#ddddda" stroke-width="2"/>
  <path d="M92 104H1108" stroke="#ececea" stroke-width="2"/>
  <path d="M92 576H1108" stroke="#ececea" stroke-width="2"/>
  <text x="92" y="236" fill="#101010" font-family="Georgia, 'Times New Roman', serif" font-size="116" letter-spacing="0">Phomoji.</text>
  <text x="98" y="306" fill="#5e5e5b" font-family="Inter, Arial, sans-serif" font-size="34">Turn photos into expressive emoji magic.</text>
  <g transform="translate(760 105)">
    <rect x="0" y="0" width="250" height="470" rx="38" fill="#f8f7f7" stroke="#ddddda" stroke-width="2"/>
    <rect x="27" y="72" width="196" height="182" rx="24" fill="#f1e7ff"/>
    <circle cx="93" cy="160" r="51" fill="#fff"/>
    <path d="M61 159C72 128 114 128 125 159C116 183 70 183 61 159Z" fill="#101010"/>
    <circle cx="78" cy="151" r="7" fill="#fff"/>
    <circle cx="108" cy="151" r="7" fill="#fff"/>
    <path d="M76 177C91 190 108 190 123 177" stroke="#101010" stroke-width="7" stroke-linecap="round"/>
    <path d="M149 110C180 130 192 176 176 214" stroke="#b74431" stroke-width="8" stroke-linecap="round"/>
    <rect x="27" y="288" width="56" height="56" rx="16" fill="#fff" stroke="#ddddda" stroke-width="2"/>
    <rect x="97" y="288" width="56" height="56" rx="16" fill="#fff" stroke="#ddddda" stroke-width="2"/>
    <rect x="167" y="288" width="56" height="56" rx="16" fill="#fff" stroke="#ddddda" stroke-width="2"/>
    <path d="M55 314C55 304 69 304 69 314C69 326 55 326 55 314Z" fill="#161a48"/>
    <path d="M119 319C130 301 150 319 139 336C132 345 123 337 119 319Z" fill="#161a48"/>
    <path d="M185 307L197 319L209 307L197 339L185 307Z" fill="#161a48"/>
    <text x="38" y="410" fill="#101010" font-family="Georgia, 'Times New Roman', serif" font-size="44">01</text>
    <text x="38" y="450" fill="#5e5e5b" font-family="Inter, Arial, sans-serif" font-size="20">app in progress</text>
  </g>
  <text x="98" y="506" fill="#161a48" font-family="Inter, Arial, sans-serif" font-size="20" font-weight="700" letter-spacing="5">INDEPENDENT APP</text>
</svg>
